<svg xmlns="http://www.w3.org/2000/svg" version="1.1" xmlns:xlink="http://www.w3.org/1999/xlink" xmlns:svgjs="http://svgjs.dev/svgjs" viewBox="0 0 14.392266035437311 3.4074529529151363"><g transform="matrix(1,0,0,1,5.005038492415659,0.6038754098934851)"><rect width="14.392266035437311" height="3.4074529529151363" x="-5.005038492415659" y="-0.6038754098934852" fill="#102036"></rect><g><path d=" M 0.489 1.1115 Q 0.34500000000000003 1.1115 0.24825 1.0695000000000001 Q 0.1515 1.0275 0.10200000000000001 0.96 Q 0.0525 0.8925000000000001 0.0495 0.8160000000000001 Q 0.0495 0.804 0.0585 0.79425 Q 0.0675 0.7845 0.081 0.7845 L 0.2415 0.7845 Q 0.261 0.7845 0.2715 0.7927500000000001 Q 0.28200000000000003 0.801 0.291 0.813 Q 0.3015 0.8385 0.32475 0.8625 Q 0.34800000000000003 0.8865000000000001 0.3885 0.90225 Q 0.429 0.918 0.489 0.918 Q 0.5865 0.918 0.63525 0.8865000000000001 Q 0.684 0.855 0.684 0.801 Q 0.684 0.762 0.6577500000000001 0.738 Q 0.6315000000000001 0.714 0.57525 0.6945 Q 0.519 0.675 0.426 0.6525000000000001 Q 0.3135 0.6285000000000001 0.23475000000000001 0.59025 Q 0.156 0.552 0.11625 0.49124999999999996 Q 0.0765 0.4305 0.0765 0.3405 Q 0.0765 0.25050000000000006 0.126 0.18074999999999997 Q 0.17550000000000002 0.11099999999999999 0.2655 0.07125000000000004 Q 0.3555 0.031500000000000083 0.48 0.031500000000000083 Q 0.5805 0.031500000000000083 0.6577500000000001 0.058499999999999996 Q 0.735 0.08549999999999991 0.7867500000000001 0.129 Q 0.8385 0.1725 0.8655 0.22199999999999998 Q 0.8925000000000001 0.27149999999999996 0.894 0.31800000000000006 Q 0.894 0.32999999999999996 0.885 0.33975 Q 0.876 0.34950000000000003 0.8625 0.34950000000000003 L 0.6945 0.34950000000000003 Q 0.6795 0.34950000000000003 0.6675 0.3435 Q 0.6555 0.3375 0.648 0.3225 Q 0.639 0.2835 0.59475 0.25425 Q 0.5505 0.22499999999999998 0.48 0.22499999999999998 Q 0.40650000000000003 0.22499999999999998 0.36375 0.252 Q 0.321 0.279 0.321 0.3345 Q 0.321 0.37050000000000005 0.34275 0.39525 Q 0.3645 0.42000000000000004 0.41625 0.43875 Q 0.468 0.4575 0.5535 0.48 Q 0.6855 0.507 0.768 0.5445 Q 0.8505 0.5820000000000001 0.8895000000000001 0.6412500000000001 Q 0.9285 0.7005 0.9285 0.7905 Q 0.9285 0.891 0.87225 0.9630000000000001 Q 0.8160000000000001 1.0350000000000001 0.71775 1.07325 Q 0.6195 1.1115 0.489 1.1115 Z M 1.1415000000000002 1.0965 Q 1.125 1.0965 1.1145 1.086 Q 1.104 1.0755000000000001 1.104 1.059 L 1.104 0.08400000000000007 Q 1.104 0.06750000000000012 1.1145 0.05699999999999994 Q 1.125 0.046499999999999986 1.1415000000000002 0.046499999999999986 L 1.3050000000000002 0.046499999999999986 Q 1.3215000000000001 0.046499999999999986 1.332 0.05699999999999994 Q 1.3425000000000002 0.06750000000000012 1.3425000000000002 0.08400000000000007 L 1.3425000000000002 0.45899999999999996 L 1.749 0.45899999999999996 L 1.749 0.08400000000000007 Q 1.749 0.06750000000000012 1.7595 0.05699999999999994 Q 1.77 0.046499999999999986 1.7865000000000002 0.046499999999999986 L 1.9500000000000002 0.046499999999999986 Q 1.9665000000000001 0.046499999999999986 1.977 0.05699999999999994 Q 1.9875000000000003 0.06750000000000012 1.9875000000000003 0.08400000000000007 L 1.9875000000000003 1.059 Q 1.9875000000000003 1.0755000000000001 1.977 1.086 Q 1.9665000000000001 1.0965 1.9500000000000002 1.0965 L 1.7865000000000002 1.0965 Q 1.77 1.0965 1.7595 1.086 Q 1.749 1.0755000000000001 1.749 1.059 L 1.749 0.672 L 1.3425000000000002 0.672 L 1.3425000000000002 1.059 Q 1.3425000000000002 1.0755000000000001 1.332 1.086 Q 1.3215000000000001 1.0965 1.3050000000000002 1.0965 Z M 2.262 1.0965 Q 2.2455000000000003 1.0965 2.2350000000000003 1.086 Q 2.2245000000000004 1.0755000000000001 2.2245000000000004 1.059 L 2.2245000000000004 0.08400000000000007 Q 2.2245000000000004 0.06750000000000012 2.2350000000000003 0.05699999999999994 Q 2.2455000000000003 0.046499999999999986 2.262 0.046499999999999986 L 2.4315 0.046499999999999986 Q 2.4480000000000004 0.046499999999999986 2.4585000000000004 0.05699999999999994 Q 2.4690000000000003 0.06750000000000012 2.4690000000000003 0.08400000000000007 L 2.4690000000000003 1.059 Q 2.4690000000000003 1.0755000000000001 2.4585000000000004 1.086 Q 2.4480000000000004 1.0965 2.4315 1.0965 Z M 2.9745000000000004 1.0965 Q 2.958 1.0965 2.9475000000000002 1.086 Q 2.9370000000000003 1.0755000000000001 2.9370000000000003 1.059 L 2.9370000000000003 0.255 L 2.664 0.255 Q 2.649 0.255 2.6385 0.24450000000000005 Q 2.628 0.23399999999999999 2.628 0.21899999999999997 L 2.628 0.08400000000000007 Q 2.628 0.06750000000000012 2.6385 0.05699999999999994 Q 2.649 0.046499999999999986 2.664 0.046499999999999986 L 3.45 0.046499999999999986 Q 3.4665000000000004 0.046499999999999986 3.4770000000000003 0.05699999999999994 Q 3.4875000000000003 0.06750000000000012 3.4875000000000003 0.08400000000000007 L 3.4875000000000003 0.21899999999999997 Q 3.4875000000000003 0.23399999999999999 3.4770000000000003 0.24450000000000005 Q 3.4665000000000004 0.255 3.45 0.255 L 3.1785 0.255 L 3.1785 1.059 Q 3.1785 1.0755000000000001 3.168 1.086 Q 3.1575 1.0965 3.141 1.0965 Z M 3.4770000000000003 1.0965 Q 3.4635000000000002 1.0965 3.4545000000000003 1.08675 Q 3.4455 1.077 3.4455 1.065 Q 3.4455 1.0575 3.447 1.0515 L 3.8040000000000003 0.08699999999999997 Q 3.8085000000000004 0.07050000000000001 3.822 0.058499999999999996 Q 3.8355 0.046499999999999986 3.8595 0.046499999999999986 L 4.0515 0.046499999999999986 Q 4.0755 0.046499999999999986 4.089 0.058499999999999996 Q 4.1025 0.07050000000000001 4.107 0.08699999999999997 L 4.464 1.0515 Q 4.4655000000000005 1.0575 4.4655000000000005 1.065 Q 4.4655000000000005 1.077 4.4565 1.08675 Q 4.4475 1.0965 4.434 1.0965 L 4.2780000000000005 1.0965 Q 4.2555000000000005 1.0965 4.245 1.086 Q 4.234500000000001 1.0755000000000001 4.2315000000000005 1.0665 L 4.167 0.8985000000000001 L 3.744 0.8985000000000001 L 3.6795 1.0665 Q 3.6765000000000003 1.0755000000000001 3.6660000000000004 1.086 Q 3.6555000000000004 1.0965 3.633 1.0965 Z M 3.7995 0.7050000000000001 L 4.11 0.7050000000000001 L 3.9555000000000002 0.273 Z M 4.647 1.0965 Q 4.6305 1.0965 4.62 1.086 Q 4.6095 1.0755000000000001 4.6095 1.059 L 4.6095 0.08400000000000007 Q 4.6095 0.06750000000000012 4.62 0.05699999999999994 Q 4.6305 0.046499999999999986 4.647 0.046499999999999986 L 4.8135 0.046499999999999986 Q 4.83 0.046499999999999986 4.8405 0.05699999999999994 Q 4.851 0.06750000000000012 4.851 0.08400000000000007 L 4.851 0.8955 L 5.316 0.8955 Q 5.3325 0.8955 5.343 0.906 Q 5.3535 0.9165000000000001 5.3535 0.933 L 5.3535 1.059 Q 5.3535 1.0755000000000001 5.343 1.086 Q 5.3325 1.0965 5.316 1.0965 Z" fill="#ffffff" fill-rule="nonzero"></path></g><g><path d=" M 0.0825 2.0856 Q 0.07425 2.0856 0.06975 2.0807249999999997 Q 0.06525 2.07585 0.06525 2.0683499999999997 L 0.06525 1.5785999999999998 Q 0.06525 1.57035 0.06975 1.5654749999999997 Q 0.07425 1.5606 0.0825 1.5606 L 0.3885 1.5606 Q 0.39675 1.5606 0.401625 1.5654749999999997 Q 0.40650000000000003 1.57035 0.40650000000000003 1.5785999999999998 L 0.40650000000000003 1.6085999999999998 Q 0.40650000000000003 1.61685 0.401625 1.6213499999999998 Q 0.39675 1.6258499999999998 0.3885 1.6258499999999998 L 0.138 1.6258499999999998 L 0.138 1.8005999999999998 L 0.3735 1.8005999999999998 Q 0.38175000000000003 1.8005999999999998 0.386625 1.805475 Q 0.3915 1.81035 0.3915 1.8186 L 0.3915 1.8485999999999998 Q 0.3915 1.8560999999999999 0.386625 1.8609749999999998 Q 0.38175000000000003 1.86585 0.3735 1.86585 L 0.138 1.86585 L 0.138 2.0683499999999997 Q 0.138 2.07585 0.133125 2.0807249999999997 Q 0.12825 2.0856 0.12 2.0856 Z M 0.70875 2.0930999999999997 Q 0.64575 2.0930999999999997 0.600375 2.0705999999999998 Q 0.555 2.0481 0.530625 2.001975 Q 0.50625 1.9558499999999999 0.50625 1.8830999999999998 L 0.50625 1.5785999999999998 Q 0.50625 1.57035 0.51075 1.5654749999999997 Q 0.51525 1.5606 0.5235 1.5606 L 0.56175 1.5606 Q 0.5700000000000001 1.5606 0.574875 1.5654749999999997 Q 0.57975 1.57035 0.57975 1.5785999999999998 L 0.57975 1.8845999999999998 Q 0.57975 1.9581 0.61425 1.99335 Q 0.64875 2.0286 0.70875 2.0286 Q 0.768 2.0286 0.802875 1.99335 Q 0.83775 1.9581 0.83775 1.8845999999999998 L 0.83775 1.5785999999999998 Q 0.83775 1.57035 0.842625 1.5654749999999997 Q 0.8475 1.5606 0.855 1.5606 L 0.894 1.5606 Q 0.9015 1.5606 0.906375 1.5654749999999997 Q 0.91125 1.57035 0.91125 1.5785999999999998 L 0.91125 1.8830999999999998 Q 0.91125 1.9558499999999999 0.8868750000000001 2.001975 Q 0.8625 2.0481 0.8175 2.0705999999999998 Q 0.7725 2.0930999999999997 0.70875 2.0930999999999997 Z M 1.06125 2.0856 Q 1.053 2.0856 1.0485 2.0807249999999997 Q 1.044 2.07585 1.044 2.0683499999999997 L 1.044 1.5778499999999998 Q 1.044 1.57035 1.0485 1.5654749999999997 Q 1.053 1.5606 1.06125 1.5606 L 1.101 1.5606 Q 1.1085 1.5606 1.113375 1.5654749999999997 Q 1.11825 1.57035 1.11825 1.5778499999999998 L 1.11825 2.02035 L 1.36725 2.02035 Q 1.3755 2.02035 1.380375 2.025225 Q 1.38525 2.0301 1.38525 2.03835 L 1.38525 2.0683499999999997 Q 1.38525 2.07585 1.380375 2.0807249999999997 Q 1.3755 2.0856 1.36725 2.0856 Z M 1.491 2.0856 Q 1.48275 2.0856 1.47825 2.0807249999999997 Q 1.4737500000000001 2.07585 1.4737500000000001 2.0683499999999997 L 1.4737500000000001 1.5778499999999998 Q 1.4737500000000001 1.57035 1.47825 1.5654749999999997 Q 1.48275 1.5606 1.491 1.5606 L 1.53075 1.5606 Q 1.5382500000000001 1.5606 1.543125 1.5654749999999997 Q 1.548 1.57035 1.548 1.5778499999999998 L 1.548 2.02035 L 1.7970000000000002 2.02035 Q 1.80525 2.02035 1.8101250000000002 2.025225 Q 1.8150000000000002 2.0301 1.8150000000000002 2.03835 L 1.8150000000000002 2.0683499999999997 Q 1.8150000000000002 2.07585 1.8101250000000002 2.0807249999999997 Q 1.80525 2.0856 1.7970000000000002 2.0856 Z M 2.244 2.0930999999999997 Q 2.1787500000000004 2.0930999999999997 2.1345 2.07285 Q 2.09025 2.0526 2.066625 2.020725 Q 2.043 1.9888499999999998 2.0415 1.9535999999999998 Q 2.0415 1.9476 2.0463750000000003 1.9427249999999998 Q 2.05125 1.9378499999999999 2.0580000000000003 1.9378499999999999 L 2.0962500000000004 1.9378499999999999 Q 2.1052500000000003 1.9378499999999999 2.10975 1.9423499999999998 Q 2.11425 1.94685 2.1157500000000002 1.95285 Q 2.1202500000000004 1.97085 2.1345 1.988475 Q 2.14875 2.0061 2.1753750000000003 2.017725 Q 2.2020000000000004 2.02935 2.244 2.02935 Q 2.3085000000000004 2.02935 2.3388750000000003 2.006475 Q 2.36925 1.9835999999999998 2.36925 1.94535 Q 2.36925 1.9190999999999998 2.3531250000000004 1.9029749999999999 Q 2.337 1.88685 2.3040000000000003 1.8740999999999999 Q 2.2710000000000004 1.8613499999999998 2.2185 1.84635 Q 2.1637500000000003 1.8306 2.1277500000000003 1.81185 Q 2.09175 1.7931 2.0741250000000004 1.76535 Q 2.0565 1.7375999999999998 2.0565 1.69485 Q 2.0565 1.65435 2.07825 1.622475 Q 2.1 1.5905999999999998 2.1412500000000003 1.57185 Q 2.1825 1.5531 2.24025 1.5531 Q 2.28675 1.5531 2.321625 1.5654749999999997 Q 2.3565000000000005 1.5778499999999998 2.3797500000000005 1.5984749999999999 Q 2.4030000000000005 1.6191 2.415 1.642725 Q 2.427 1.66635 2.42775 1.68885 Q 2.42775 1.6941 2.4240000000000004 1.698975 Q 2.4202500000000002 1.7038499999999999 2.4120000000000004 1.7038499999999999 L 2.37225 1.7038499999999999 Q 2.367 1.7038499999999999 2.3613750000000002 1.70085 Q 2.3557500000000005 1.6978499999999999 2.3527500000000003 1.6896 Q 2.34825 1.65885 2.3182500000000004 1.6378499999999998 Q 2.28825 1.61685 2.24025 1.61685 Q 2.1915000000000004 1.61685 2.161125 1.6356 Q 2.1307500000000004 1.65435 2.1307500000000004 1.6941 Q 2.1307500000000004 1.7195999999999998 2.1450000000000005 1.736475 Q 2.15925 1.75335 2.1900000000000004 1.7660999999999998 Q 2.2207500000000002 1.7788499999999998 2.2702500000000003 1.7931 Q 2.3302500000000004 1.8095999999999999 2.3685 1.827975 Q 2.40675 1.84635 2.4251250000000004 1.8737249999999999 Q 2.4435000000000002 1.9011 2.4435000000000002 1.9438499999999999 Q 2.4435000000000002 1.9910999999999999 2.41875 2.024475 Q 2.394 2.0578499999999997 2.349375 2.075475 Q 2.3047500000000003 2.0930999999999997 2.244 2.0930999999999997 Z M 2.67525 2.0856 Q 2.6677500000000003 2.0856 2.662875 2.0807249999999997 Q 2.6580000000000004 2.07585 2.6580000000000004 2.0683499999999997 L 2.6580000000000004 1.6273499999999999 L 2.5140000000000002 1.6273499999999999 Q 2.5065000000000004 1.6273499999999999 2.501625 1.622475 Q 2.49675 1.6176 2.49675 1.6100999999999999 L 2.49675 1.5785999999999998 Q 2.49675 1.57035 2.501625 1.5654749999999997 Q 2.5065000000000004 1.5606 2.5140000000000002 1.5606 L 2.8755 1.5606 Q 2.88375 1.5606 2.888625 1.5654749999999997 Q 2.8935000000000004 1.57035 2.8935000000000004 1.5785999999999998 L 2.8935000000000004 1.6100999999999999 Q 2.8935000000000004 1.6176 2.888625 1.622475 Q 2.88375 1.6273499999999999 2.8755 1.6273499999999999 L 2.73225 1.6273499999999999 L 2.73225 2.0683499999999997 Q 2.73225 2.07585 2.7273750000000003 2.0807249999999997 Q 2.7225 2.0856 2.7142500000000003 2.0856 Z M 2.89425 2.0856 Q 2.88825 2.0856 2.88375 2.0810999999999997 Q 2.8792500000000003 2.0766 2.8792500000000003 2.0705999999999998 Q 2.8792500000000003 2.06685 2.8800000000000003 2.06235 L 3.0660000000000003 1.5770999999999997 Q 3.0690000000000004 1.5695999999999999 3.07425 1.5651 Q 3.0795000000000003 1.5606 3.0900000000000003 1.5606 L 3.141 1.5606 Q 3.1515000000000004 1.5606 3.15675 1.5651 Q 3.1620000000000004 1.5695999999999999 3.165 1.5770999999999997 L 3.35025 2.06235 Q 3.35175 2.06685 3.35175 2.0705999999999998 Q 3.35175 2.0766 3.3472500000000003 2.0810999999999997 Q 3.34275 2.0856 3.3367500000000003 2.0856 L 3.2985 2.0856 Q 3.2895000000000003 2.0856 3.285375 2.0810999999999997 Q 3.28125 2.0766 3.2797500000000004 2.07285 L 3.2385 1.9663499999999998 L 2.9925 1.9663499999999998 L 2.9512500000000004 2.07285 Q 2.9505000000000003 2.0766 2.946 2.0810999999999997 Q 2.9415 2.0856 2.9325 2.0856 Z M 3.01425 1.9018499999999998 L 3.21675 1.9018499999999998 L 3.1155000000000004 1.6356 Z M 3.6187500000000004 2.0930999999999997 Q 3.5497500000000004 2.0930999999999997 3.5043750000000005 2.0676 Q 3.4590000000000005 2.0421 3.4357500000000005 1.9963499999999998 Q 3.4125000000000005 1.9506 3.4102500000000004 1.8898499999999998 Q 3.4095000000000004 1.8591 3.4095000000000004 1.82385 Q 3.4095000000000004 1.7886 3.4102500000000004 1.7563499999999999 Q 3.4125000000000005 1.6955999999999998 3.4357500000000005 1.6498499999999998 Q 3.4590000000000005 1.6040999999999999 3.5043750000000005 1.5785999999999998 Q 3.5497500000000004 1.5531 3.6187500000000004 1.5531 Q 3.6705000000000005 1.5531 3.7095000000000007 1.5673499999999998 Q 3.7485000000000004 1.5816 3.7743750000000005 1.6056 Q 3.8002500000000006 1.6296 3.8137500000000006 1.659225 Q 3.8272500000000003 1.68885 3.8287500000000003 1.7203499999999998 Q 3.8295000000000003 1.7270999999999999 3.8246250000000006 1.7315999999999998 Q 3.8197500000000004 1.7361 3.8130000000000006 1.7361 L 3.7717500000000004 1.7361 Q 3.7650000000000006 1.7361 3.7601250000000004 1.7323499999999998 Q 3.7552500000000006 1.7286 3.7530000000000006 1.7188499999999998 Q 3.7402500000000005 1.6603499999999998 3.7053750000000005 1.6385999999999998 Q 3.6705000000000005 1.61685 3.6187500000000004 1.61685 Q 3.5580000000000007 1.61685 3.5227500000000003 1.6509749999999999 Q 3.4875000000000007 1.6850999999999998 3.4852500000000006 1.7601 Q 3.4830000000000005 1.8215999999999999 3.4852500000000006 1.8860999999999999 Q 3.4875000000000007 1.9610999999999998 3.5227500000000003 1.9952249999999998 Q 3.5580000000000007 2.02935 3.6187500000000004 2.02935 Q 3.6705000000000005 2.02935 3.7053750000000005 2.0076 Q 3.7402500000000005 1.98585 3.7530000000000006 1.92735 Q 3.7552500000000006 1.9176 3.7601250000000004 1.9138499999999998 Q 3.7650000000000006 1.9101 3.7717500000000004 1.9101 L 3.8130000000000006 1.9101 Q 3.8197500000000004 1.9101 3.8246250000000006 1.9142249999999998 Q 3.8295000000000003 1.9183499999999998 3.8287500000000003 1.9250999999999998 Q 3.8272500000000003 1.9566 3.8137500000000006 1.9866 Q 3.8002500000000006 2.0166 3.7743750000000005 2.0406 Q 3.7485000000000004 2.0646 3.7095000000000007 2.07885 Q 3.6705000000000005 2.0930999999999997 3.6187500000000004 2.0930999999999997 Z M 3.9540000000000006 2.0856 Q 3.9457500000000008 2.0856 3.9412500000000006 2.0807249999999997 Q 3.9367500000000004 2.07585 3.9367500000000004 2.0683499999999997 L 3.9367500000000004 1.5785999999999998 Q 3.9367500000000004 1.57035 3.9412500000000006 1.5654749999999997 Q 3.9457500000000008 1.5606 3.9540000000000006 1.5606 L 3.9915000000000007 1.5606 Q 3.9997500000000006 1.5606 4.004625000000001 1.5654749999999997 Q 4.009500000000001 1.57035 4.009500000000001 1.5785999999999998 L 4.009500000000001 1.7646 L 4.2097500000000005 1.5726 Q 4.212750000000001 1.5695999999999999 4.219875000000001 1.5651 Q 4.227 1.5606 4.239000000000001 1.5606 L 4.2795000000000005 1.5606 Q 4.285500000000001 1.5606 4.290000000000001 1.5651 Q 4.2945 1.5695999999999999 4.2945 1.5756 Q 4.2945 1.5816 4.291500000000001 1.58535 L 4.05975 1.81185 L 4.306500000000001 2.0601 Q 4.310250000000001 2.0646 4.310250000000001 2.0705999999999998 Q 4.310250000000001 2.0766 4.305750000000001 2.0810999999999997 Q 4.3012500000000005 2.0856 4.29525 2.0856 L 4.25325 2.0856 Q 4.240500000000001 2.0856 4.233750000000001 2.0807249999999997 Q 4.227 2.07585 4.224 2.07285 L 4.009500000000001 1.8620999999999999 L 4.009500000000001 2.0683499999999997 Q 4.009500000000001 2.07585 4.004625000000001 2.0807249999999997 Q 3.9997500000000006 2.0856 3.9915000000000007 2.0856 Z M 4.596 2.0856 Q 4.587750000000001 2.0856 4.5832500000000005 2.0807249999999997 Q 4.57875 2.07585 4.57875 2.0683499999999997 L 4.57875 1.5785999999999998 Q 4.57875 1.57035 4.5832500000000005 1.5654749999999997 Q 4.587750000000001 1.5606 4.596 1.5606 L 4.76625 1.5606 Q 4.843500000000001 1.5606 4.890750000000001 1.58385 Q 4.938000000000001 1.6071 4.9597500000000005 1.652475 Q 4.9815000000000005 1.6978499999999999 4.9822500000000005 1.76385 Q 4.9830000000000005 1.7975999999999999 4.9830000000000005 1.8231 Q 4.9830000000000005 1.8485999999999998 4.9822500000000005 1.8816 Q 4.9807500000000005 1.9506 4.9593750000000005 1.9959749999999998 Q 4.938000000000001 2.04135 4.891875000000001 2.063475 Q 4.845750000000001 2.0856 4.7700000000000005 2.0856 Z M 4.65225 2.0218499999999997 L 4.76625 2.0218499999999997 Q 4.8180000000000005 2.0218499999999997 4.848750000000001 2.0076 Q 4.8795 1.99335 4.893375000000001 1.9618499999999999 Q 4.90725 1.9303499999999998 4.908 1.8785999999999998 Q 4.9095 1.8560999999999999 4.9095 1.8392249999999999 Q 4.9095 1.82235 4.9095 1.805475 Q 4.9095 1.7886 4.908 1.7668499999999998 Q 4.9065 1.6941 4.873500000000001 1.659225 Q 4.8405000000000005 1.62435 4.7625 1.62435 L 4.65225 1.62435 Z M 5.12025 2.0856 Q 5.112000000000001 2.0856 5.107500000000001 2.0807249999999997 Q 5.103000000000001 2.07585 5.103000000000001 2.0683499999999997 L 5.103000000000001 1.5785999999999998 Q 5.103000000000001 1.57035 5.107500000000001 1.5654749999999997 Q 5.112000000000001 1.5606 5.12025 1.5606 L 5.430000000000001 1.5606 Q 5.438250000000001 1.5606 5.442750000000001 1.5654749999999997 Q 5.447250000000001 1.57035 5.447250000000001 1.5785999999999998 L 5.447250000000001 1.6071 Q 5.447250000000001 1.6153499999999998 5.442750000000001 1.61985 Q 5.438250000000001 1.62435 5.430000000000001 1.62435 L 5.175000000000001 1.62435 L 5.175000000000001 1.7886 L 5.413500000000001 1.7886 Q 5.421750000000001 1.7886 5.4262500000000005 1.793475 Q 5.430750000000001 1.79835 5.430750000000001 1.8066 L 5.430750000000001 1.83435 Q 5.430750000000001 1.84185 5.4262500000000005 1.846725 Q 5.421750000000001 1.8516 5.413500000000001 1.8516 L 5.175000000000001 1.8516 L 5.175000000000001 2.0218499999999997 L 5.436000000000001 2.0218499999999997 Q 5.444250000000001 2.0218499999999997 5.44875 2.02635 Q 5.453250000000001 2.03085 5.453250000000001 2.0391 L 5.453250000000001 2.0683499999999997 Q 5.453250000000001 2.07585 5.44875 2.0807249999999997 Q 5.444250000000001 2.0856 5.436000000000001 2.0856 Z M 5.715000000000001 2.0856 Q 5.70375 2.0856 5.697375 2.0803499999999997 Q 5.691000000000001 2.0751 5.687250000000001 2.0661 L 5.5200000000000005 1.58385 Q 5.5185 1.5793499999999998 5.5185 1.5756 Q 5.5185 1.5695999999999999 5.523000000000001 1.5651 Q 5.527500000000001 1.5606 5.5335 1.5606 L 5.572500000000001 1.5606 Q 5.5815 1.5606 5.586375 1.5654749999999997 Q 5.5912500000000005 1.57035 5.5927500000000006 1.5740999999999998 L 5.739000000000001 1.99935 L 5.886 1.5740999999999998 Q 5.8875 1.57035 5.892 1.5654749999999997 Q 5.8965000000000005 1.5606 5.9055 1.5606 L 5.944500000000001 1.5606 Q 5.9505 1.5606 5.955375 1.5651 Q 5.96025 1.5695999999999999 5.96025 1.5756 Q 5.96025 1.5793499999999998 5.95875 1.58385 L 5.79075 2.0661 Q 5.78775 2.0751 5.781375000000001 2.0803499999999997 Q 5.775 2.0856 5.76375 2.0856 Z M 6.075 2.0856 Q 6.066750000000001 2.0856 6.062250000000001 2.0807249999999997 Q 6.05775 2.07585 6.05775 2.0683499999999997 L 6.05775 1.5785999999999998 Q 6.05775 1.57035 6.062250000000001 1.5654749999999997 Q 6.066750000000001 1.5606 6.075 1.5606 L 6.38475 1.5606 Q 6.393000000000001 1.5606 6.397500000000001 1.5654749999999997 Q 6.402000000000001 1.57035 6.402000000000001 1.5785999999999998 L 6.402000000000001 1.6071 Q 6.402000000000001 1.6153499999999998 6.397500000000001 1.61985 Q 6.393000000000001 1.62435 6.38475 1.62435 L 6.1297500000000005 1.62435 L 6.1297500000000005 1.7886 L 6.368250000000001 1.7886 Q 6.376500000000001 1.7886 6.381 1.793475 Q 6.3855 1.79835 6.3855 1.8066 L 6.3855 1.83435 Q 6.3855 1.84185 6.381 1.846725 Q 6.376500000000001 1.8516 6.368250000000001 1.8516 L 6.1297500000000005 1.8516 L 6.1297500000000005 2.0218499999999997 L 6.390750000000001 2.0218499999999997 Q 6.399000000000001 2.0218499999999997 6.403500000000001 2.02635 Q 6.408 2.03085 6.408 2.0391 L 6.408 2.0683499999999997 Q 6.408 2.07585 6.403500000000001 2.0807249999999997 Q 6.399000000000001 2.0856 6.390750000000001 2.0856 Z M 6.537 2.0856 Q 6.5287500000000005 2.0856 6.52425 2.0807249999999997 Q 6.51975 2.07585 6.51975 2.0683499999999997 L 6.51975 1.5778499999999998 Q 6.51975 1.57035 6.52425 1.5654749999999997 Q 6.5287500000000005 1.5606 6.537 1.5606 L 6.5767500000000005 1.5606 Q 6.58425 1.5606 6.589125 1.5654749999999997 Q 6.594 1.57035 6.594 1.5778499999999998 L 6.594 2.02035 L 6.843 2.02035 Q 6.85125 2.02035 6.8561250000000005 2.025225 Q 6.861000000000001 2.0301 6.861000000000001 2.03835 L 6.861000000000001 2.0683499999999997 Q 6.861000000000001 2.07585 6.8561250000000005 2.0807249999999997 Q 6.85125 2.0856 6.843 2.0856 Z M 7.131 2.0930999999999997 Q 7.0665000000000004 2.0930999999999997 7.0207500000000005 2.070975 Q 6.9750000000000005 2.04885 6.9502500000000005 2.002725 Q 6.9255 1.9566 6.9225 1.88685 Q 6.92175 1.85385 6.92175 1.823475 Q 6.92175 1.7931 6.9225 1.7601 Q 6.9255 1.6910999999999998 6.9513750000000005 1.6449749999999999 Q 6.977250000000001 1.5988499999999999 7.023375000000001 1.575975 Q 7.069500000000001 1.5531 7.131 1.5531 Q 7.191750000000001 1.5531 7.237875000000001 1.575975 Q 7.284000000000001 1.5988499999999999 7.31025 1.6449749999999999 Q 7.3365 1.6910999999999998 7.33875 1.7601 Q 7.34025 1.7931 7.34025 1.823475 Q 7.34025 1.85385 7.33875 1.88685 Q 7.3365 1.9566 7.311375 2.002725 Q 7.286250000000001 2.04885 7.240500000000001 2.070975 Q 7.19475 2.0930999999999997 7.131 2.0930999999999997 Z M 7.131 2.02935 Q 7.188000000000001 2.02935 7.224375 1.99485 Q 7.260750000000001 1.9603499999999998 7.26375 1.8830999999999998 Q 7.26525 1.8493499999999998 7.26525 1.822725 Q 7.26525 1.7961 7.26375 1.7631 Q 7.262250000000001 1.71135 7.244625 1.6790999999999998 Q 7.227 1.64685 7.19775 1.63185 Q 7.168500000000001 1.61685 7.131 1.61685 Q 7.093500000000001 1.61685 7.06425 1.63185 Q 7.035 1.64685 7.017375 1.6790999999999998 Q 6.999750000000001 1.71135 6.9975000000000005 1.7631 Q 6.9967500000000005 1.7961 6.9967500000000005 1.822725 Q 6.9967500000000005 1.8493499999999998 6.9975000000000005 1.8830999999999998 Q 7.000500000000001 1.9603499999999998 7.03725 1.99485 Q 7.074000000000001 2.02935 7.131 2.02935 Z M 7.4745 2.0856 Q 7.4662500000000005 2.0856 7.46175 2.0807249999999997 Q 7.45725 2.07585 7.45725 2.0683499999999997 L 7.45725 1.5785999999999998 Q 7.45725 1.57035 7.46175 1.5654749999999997 Q 7.4662500000000005 1.5606 7.4745 1.5606 L 7.665 1.5606 Q 7.7205 1.5606 7.761375 1.5785999999999998 Q 7.802250000000001 1.5966 7.824750000000001 1.6322249999999998 Q 7.847250000000001 1.6678499999999998 7.847250000000001 1.7210999999999999 Q 7.847250000000001 1.7743499999999999 7.824750000000001 1.8095999999999999 Q 7.802250000000001 1.8448499999999999 7.761375 1.86285 Q 7.7205 1.88085 7.665 1.88085 L 7.53225 1.88085 L 7.53225 2.0683499999999997 Q 7.53225 2.07585 7.527375 2.0807249999999997 Q 7.5225 2.0856 7.5142500000000005 2.0856 Z M 7.5315 1.81785 L 7.661250000000001 1.81785 Q 7.71675 1.81785 7.7445 1.7931 Q 7.7722500000000005 1.7683499999999999 7.7722500000000005 1.7210999999999999 Q 7.7722500000000005 1.6745999999999999 7.74525 1.6490999999999998 Q 7.71825 1.6236 7.661250000000001 1.6236 L 7.5315 1.6236 Z M 7.9635 2.0856 Q 7.95525 2.0856 7.95075 2.0807249999999997 Q 7.94625 2.07585 7.94625 2.0683499999999997 L 7.94625 1.5785999999999998 Q 7.94625 1.57035 7.95075 1.5654749999999997 Q 7.95525 1.5606 7.9635 1.5606 L 8.27325 1.5606 Q 8.2815 1.5606 8.286 1.5654749999999997 Q 8.2905 1.57035 8.2905 1.5785999999999998 L 8.2905 1.6071 Q 8.2905 1.6153499999999998 8.286 1.61985 Q 8.2815 1.62435 8.27325 1.62435 L 8.01825 1.62435 L 8.01825 1.7886 L 8.25675 1.7886 Q 8.265 1.7886 8.2695 1.793475 Q 8.274000000000001 1.79835 8.274000000000001 1.8066 L 8.274000000000001 1.83435 Q 8.274000000000001 1.84185 8.2695 1.846725 Q 8.265 1.8516 8.25675 1.8516 L 8.01825 1.8516 L 8.01825 2.0218499999999997 L 8.279250000000001 2.0218499999999997 Q 8.2875 2.0218499999999997 8.292 2.02635 Q 8.2965 2.03085 8.2965 2.0391 L 8.2965 2.0683499999999997 Q 8.2965 2.07585 8.292 2.0807249999999997 Q 8.2875 2.0856 8.279250000000001 2.0856 Z M 8.4255 2.0856 Q 8.41725 2.0856 8.41275 2.0807249999999997 Q 8.40825 2.07585 8.40825 2.0683499999999997 L 8.40825 1.5785999999999998 Q 8.40825 1.57035 8.41275 1.5654749999999997 Q 8.41725 1.5606 8.4255 1.5606 L 8.6085 1.5606 Q 8.69325 1.5606 8.74275 1.60035 Q 8.79225 1.6401 8.79225 1.7181 Q 8.79225 1.77585 8.763375 1.812225 Q 8.7345 1.8485999999999998 8.685 1.86285 L 8.8005 2.06235 Q 8.80275 2.06685 8.80275 2.0705999999999998 Q 8.80275 2.0766 8.797875 2.0810999999999997 Q 8.793 2.0856 8.787 2.0856 L 8.751 2.0856 Q 8.73825 2.0856 8.73225 2.07885 Q 8.72625 2.0721 8.72175 2.06535 L 8.613 1.87485 L 8.48175 1.87485 L 8.48175 2.0683499999999997 Q 8.48175 2.07585 8.476875 2.0807249999999997 Q 8.472 2.0856 8.46375 2.0856 Z M 8.48175 1.8111 L 8.6055 1.8111 Q 8.66175 1.8111 8.6895 1.787475 Q 8.71725 1.76385 8.71725 1.71735 Q 8.71725 1.6715999999999998 8.689875 1.6476 Q 8.6625 1.6236 8.6055 1.6236 L 8.48175 1.6236 Z" fill="#eda0a0" fill-rule="nonzero"></path></g><g clip-path="url(&quot;#SvgjsClipPath1023&quot;)"><path d=" M -2.860354034157714 -0.05089786687183406 L -1.3323326078251703 -0.05089786687183406 L -2.924039523061464 1.4193189377755493 L -4.452060949394008 1.4193189377755493 Z" fill="#3682ae" transform="matrix(1,0,0,1,0,0)" fill-rule="nonzero"></path><path d=" M -1.9280214263325437 0.6662810622244506 L -0.40000000000000036 0.6662810622244506 L -1.9917069152362945 2.136497866871834 L -3.5197283415688383 2.136497866871834 Z" fill="#a5b2ba" transform="matrix(1,0,0,1,0,0)" fill-rule="nonzero"></path></g></g><defs><clipPath id="SvgjsClipPath1023"><path d=" M -4.452060949394008 -0.05089786687183406 h 4.052060949394008 v 2.187395733743668 h -4.052060949394008 Z"></path></clipPath></defs></svg>